<svg width="719" height="832" viewBox="0 0 719 832" fill="none" xmlns="http://www.w3.org/2000/svg">
<path d="M77.3049 265.644C99.68 185.955 14.6756 59.4683 97.3049 54.6436C102.178 54.3591 109.805 54.6436 109.805 54.6436L159.805 20.6436C159.805 20.6436 216.339 -5.73236 252.805 1.14364C289.898 8.13791 297.429 42.9076 333.305 54.6436C375.061 68.3034 407.371 33.3588 445.805 54.6436C481.858 74.6103 473.796 114.996 504.805 142.144C553.359 184.652 615.676 147.532 662.305 192.144C695.942 224.327 713.796 251.263 717.805 297.644C722.172 348.17 708.446 383.078 673.305 419.644C644.502 449.614 586.608 426.915 578.305 467.644C570.677 505.059 635.84 510.013 633.805 548.144C630.853 603.462 560.151 604.789 504.805 607.144H488.805C488.805 607.144 457.082 655.106 445.805 689.644C435.063 722.54 449.654 747.497 431.805 777.144C395.294 837.785 308.463 849.377 252.805 805.644C223.323 782.478 234.387 746.489 206.305 721.644C167.431 687.25 118.845 720.764 77.3049 689.644C32.8242 656.32 23.1436 618.38 9.42654 564.62L9.30486 564.144C-4.64704 509.465 -1.45389 475.039 9.30486 419.644C21.839 355.107 59.5327 328.939 77.3049 265.644Z" fill="#1C406D"/>
</svg>
