<svg width="23" height="23" viewBox="0 0 23 23" fill="none" xmlns="http://www.w3.org/2000/svg">
<path d="M15.0938 1.4375C14.0836 1.43727 13.0875 1.67366 12.1851 2.12772C11.2828 2.58179 10.4994 3.2409 9.89766 4.05225C9.29593 4.8636 8.89261 5.80462 8.72004 6.7999C8.54746 7.79519 8.61042 8.81706 8.90387 9.78363L1.4375 17.25V21.5625H5.75L13.2164 14.0961C14.1061 14.3662 15.0436 14.4413 15.965 14.3163C16.8864 14.1912 17.77 13.8691 18.5556 13.3717C19.3412 12.8743 20.0104 12.2133 20.5174 11.4339C21.0245 10.6546 21.3576 9.77501 21.494 8.85524C21.6304 7.93547 21.5669 6.9971 21.3079 6.10409C21.0488 5.21107 20.6003 4.3844 19.9929 3.6804C19.3855 2.97641 18.6334 2.41164 17.788 2.02458C16.9425 1.63753 16.0236 1.43728 15.0938 1.4375ZM15.0938 12.9375C14.5989 12.9372 14.1068 12.8641 13.6333 12.7204L12.8088 12.4703L12.2001 13.0791L9.91372 15.3654L8.92256 14.375L7.90625 15.3913L8.89741 16.3825L7.75747 17.5224L6.76631 16.5312L5.75 17.5476L6.74116 18.5387L5.15488 20.125H2.875V17.8451L9.92019 10.7999L10.5297 10.1912L10.2796 9.36675C9.97235 8.35403 9.99231 7.27022 10.3366 6.26949C10.6809 5.26876 11.332 4.40208 12.1972 3.79272C13.0625 3.18336 14.0978 2.86236 15.1561 2.87538C16.2143 2.8884 17.2414 3.23477 18.0914 3.86523C18.9415 4.4957 19.571 5.37813 19.8906 6.38703C20.2101 7.39592 20.2034 8.4799 19.8714 9.48476C19.5394 10.4896 18.8989 11.3642 18.0412 11.9841C17.1834 12.604 16.152 12.9376 15.0938 12.9375Z" fill="white"/>
<path d="M15.8125 8.625C16.6064 8.625 17.25 7.98141 17.25 7.1875C17.25 6.39359 16.6064 5.75 15.8125 5.75C15.0186 5.75 14.375 6.39359 14.375 7.1875C14.375 7.98141 15.0186 8.625 15.8125 8.625Z" fill="white"/>
</svg>
