<svg width="933" height="950" viewBox="0 0 933 950" fill="none" xmlns="http://www.w3.org/2000/svg">
<path d="M452.087 -54.122C515.109 -88.0983 563.245 -77.663 634.587 -71.622C1031.5 -38.0128 1032.07 922.269 634.587 948.378C608.478 950.093 593.719 949.697 567.587 948.378C508.276 945.383 476.026 933.944 417.587 923.378C353.751 911.836 320.087 914.044 254.587 891.378C189.087 868.712 126.587 876.878 47.5869 816.378C-31.413 755.878 105.153 671.605 94.5869 576.878C84.2813 484.483 -3.13583 451.29 0.0869056 358.378C3.34157 264.545 43.0666 209.567 111.587 145.378C186.052 75.6201 272.636 108.992 353.587 46.878C397.297 13.339 403.591 -27.977 452.087 -54.122Z" fill="#1C406D"/>
</svg>
