<svg width="22" height="22" viewBox="0 0 22 22" fill="none" xmlns="http://www.w3.org/2000/svg">
<path d="M19.8446 18.2188C18.5358 15.956 16.5189 14.3335 14.165 13.5644C15.3293 12.8713 16.2339 11.8151 16.7399 10.5581C17.2459 9.30111 17.3252 7.91278 16.9658 6.60632C16.6064 5.29986 15.828 4.14751 14.7502 3.32623C13.6725 2.50495 12.355 2.06016 11 2.06016C9.64495 2.06016 8.32741 2.50495 7.24967 3.32623C6.17192 4.14751 5.39356 5.29986 5.03413 6.60632C4.67469 7.91278 4.75404 9.30111 5.26001 10.5581C5.76597 11.8151 6.67057 12.8713 7.83488 13.5644C5.48105 14.3327 3.4641 15.9552 2.15527 18.2188C2.10727 18.297 2.07544 18.3841 2.06164 18.4749C2.04784 18.5656 2.05237 18.6582 2.07494 18.7472C2.09751 18.8362 2.13768 18.9198 2.19308 18.993C2.24847 19.0662 2.31797 19.1276 2.39746 19.1735C2.47696 19.2194 2.56485 19.249 2.65595 19.2604C2.74705 19.2718 2.8395 19.2648 2.92787 19.2399C3.01623 19.215 3.09871 19.1726 3.17044 19.1153C3.24217 19.058 3.30169 18.9869 3.3455 18.9063C4.96457 16.1081 7.82629 14.4375 11 14.4375C14.1736 14.4375 17.0353 16.1081 18.6544 18.9063C18.6982 18.9869 18.7577 19.058 18.8295 19.1153C18.9012 19.1726 18.9837 19.215 19.072 19.2399C19.1604 19.2648 19.2529 19.2718 19.344 19.2604C19.4351 19.249 19.523 19.2194 19.6025 19.1735C19.6819 19.1276 19.7514 19.0662 19.8068 18.993C19.8622 18.9198 19.9024 18.8362 19.925 18.7472C19.9475 18.6582 19.9521 18.5656 19.9383 18.4749C19.9245 18.3841 19.8926 18.297 19.8446 18.2188ZM6.18746 8.25C6.18746 7.29818 6.46971 6.36773 6.99851 5.57632C7.52731 4.78491 8.27892 4.16808 9.15829 3.80383C10.0377 3.43958 11.0053 3.34428 11.9388 3.52997C12.8724 3.71566 13.7299 4.17401 14.4029 4.84705C15.0759 5.52009 15.5343 6.37759 15.72 7.31113C15.9057 8.24466 15.8104 9.2123 15.4461 10.0917C15.0819 10.971 14.4651 11.7226 13.6736 12.2514C12.8822 12.7803 11.9518 13.0625 11 13.0625C9.72402 13.0611 8.50074 12.5537 7.59851 11.6514C6.69629 10.7492 6.18882 9.52594 6.18746 8.25Z" fill="white"/>
</svg>
